#N canvas 650 22 609 548 10;
#N canvas 0 22 450 300 graph1 0;
#X array pwm2 1000 float 0;
#X coords 0 1 999 -1 200 100 1;
#X restore 270 336 graph;
#X obj 119 337 tgl 15 1 empty empty empty 0 -6 0 10 -262144 -1 -1 1
1;
#X text 248 423 -1;
#X text 254 378 0;
#X text 254 332 1;
#X text 140 335 Graph output;
#X text 82 419 Line out to soundcard.;
#X obj 42 80 mtof;
#X obj 45 57 hsl 128 15 0 127 0 1 empty empty empty -2 -6 0 8 -262144
-1 -1 6800 1;
#X obj 42 104 phasor~;
#X text 41 34 SQUARE WAVE OSCILLATOR;
#X obj 119 360 metro 100;
#X text 186 81 [mtof] converts MIDI notes to frequency in Hertz.;
#X text 187 57 Slider sends MIDI note values (0-127).;
#X text 186 105 [phasor~] makes a ramping waveform.;
#X text 185 269 [expr~] checks if the value of the ramp is greater
;
#X obj 42 272 expr~ $v1 > $v2;
#X obj 129 223 abs~;
#X obj 129 133 nbx 5 14 -1e+37 1e+37 0 1 empty empty empty 0 -6 0 10
-262144 -1 -1 10 256;
#X obj 129 162 / 100;
#X obj 129 192 osc~;
#X obj 82 388 tabwrite~ pwm2;
#X text 435 16 osc11.pd;
#X obj 42 418 dac~;
#X text 186 192 Make an LFO sine wave. Output goes from -1 to 1;
#X text 187 160 Divide by 100 to make frequencies between 0-1 possible.
;
#X text 186 221 Convert any negative values from [osc~] to positive
ones (range = 0-1).;
#X text 187 283 than the number at the second input (0-1 range). If
so \, then it outputs 1 \, otherwise 0;
#X connect 1 0 11 0;
#X connect 7 0 9 0;
#X connect 8 0 7 0;
#X connect 9 0 16 0;
#X connect 11 0 21 0;
#X connect 16 0 21 0;
#X connect 16 0 23 0;
#X connect 16 0 23 1;
#X connect 17 0 16 1;
#X connect 18 0 19 0;
#X connect 19 0 20 0;
#X connect 20 0 17 0;
