#N canvas 869 72 542 530 12;
#X obj 92 51 hsl 128 15 0 127 0 0 empty empty empty -2 -8 0 10 #fcfcfc
#000000 #000000 5900 1;
#X obj 92 75 mtof;
#X obj 92 227 dac~;
#N canvas 92 66 712 493 antialiasing 1;
#X obj 103 20 inlet;
#X obj 103 49 phasor~;
#X obj 103 78 expr~ ($v1 > 0.5) * 2 - 1;
#X obj 103 107 *~ 0.064;
#X obj 103 136 rpole~ 0.93538;
#X obj 103 165 *~ 0.00431;
#X obj 103 194 cpole~ 0.96559 0.05592;
#X obj 103 223 cpole~ 0.96559 -0.05592;
#X obj 103 252 *~ 0.125;
#X obj 103 281 rzero~ -1;
#X obj 103 310 rzero~ -1;
#X obj 103 339 rzero~ -1;
#X obj 103 368 outlet~;
#X obj 305 304 block~ 1024 1 16;
#X connect 0 0 1 0;
#X connect 1 0 2 0;
#X connect 2 0 3 0;
#X connect 3 0 4 0;
#X connect 4 0 5 0;
#X connect 5 0 6 0;
#X connect 6 0 7 0;
#X connect 6 1 7 1;
#X connect 7 0 8 0;
#X connect 8 0 9 0;
#X connect 9 0 10 0;
#X connect 10 0 11 0;
#X connect 11 0 12 0;
#X restore 92 151 pd antialiasing;
#X connect 0 0 1 0;
#X connect 1 0 3 0;
#X connect 3 0 2 0;
#X connect 3 0 2 1;
