#N canvas 515 156 747 580 12;
#X obj 218 442 vline~;
#X obj 85 272 t f f;
#X obj 195 110 trigger float float;
#X obj 291 442 expr 1000./$f1;
#X obj 218 484 slop~ 1e+09, f 18;
#X msg 218 396 0;
#X obj 117 299 * 0.75;
#X obj 195 138 != 0;
#X obj 495 323 v D_\$0;
#X floatatom 426 295 5 0 0 0 - - - 0;
#X obj 426 184 loadbang;
#X obj 426 265 unpack float float float float;
#X floatatom 495 295 5 0 0 0 - - - 0;
#X floatatom 564 295 5 0 0 0 - - - 0;
#X floatatom 633 295 5 0 0 0 - - - 0;
#X obj 291 396 v D_\$0;
#X obj 564 323 s S_\$0;
#X obj 156 273 r S_\$0;
#X obj 195 198 sel 1 0;
#X obj 426 323 s A_\$0;
#X obj 367 498 expr 1000./$f1;
#X obj 367 473 r A_\$0;
#X obj 348 396 v R_\$0;
#X obj 633 323 v R_\$0;
#X obj 85 244 v gate_\$0;
#X obj 325 141 v gate_\$0;
#X listbox 85 351 17 0 0 0 - - - 0;
#X obj 426 237 pdcontrol;
#X msg 426 211 args;
#X obj 195 40 inlet;
#X obj 195 81 / 127;
#X obj 218 531 outlet~;
#X obj 495 105 v D_\$0;
#X obj 555 105 s S_\$0;
#X obj 435 105 s A_\$0;
#X obj 625 105 v R_\$0;
#X obj 435 40 inlet;
#X obj 495 40 inlet;
#X obj 555 40 inlet;
#X obj 625 40 inlet;
#X obj 85 327 pack f f f;
#X obj 167 324 r A_\$0;
#X msg 85 376 \$1 \, \$2 0 \$3;
#X text 432 131 attack;
#X text 495 131 decay;
#X text 552 131 sustain;
#X text 621 131 release;
#X obj 206 166 change;
#X connect 0 0 4 0;
#X connect 1 0 40 0;
#X connect 1 1 6 0;
#X connect 2 0 7 0;
#X connect 2 1 25 0;
#X connect 3 0 4 3;
#X connect 4 0 31 0;
#X connect 5 0 0 0;
#X connect 6 0 40 1;
#X connect 7 0 47 0;
#X connect 7 0 18 0;
#X connect 9 0 19 0;
#X connect 10 0 28 0;
#X connect 11 0 9 0;
#X connect 11 1 12 0;
#X connect 11 2 13 0;
#X connect 11 3 14 0;
#X connect 12 0 8 0;
#X connect 13 0 16 0;
#X connect 14 0 23 0;
#X connect 15 0 3 0;
#X connect 17 0 6 1;
#X connect 18 0 15 0;
#X connect 18 0 24 0;
#X connect 18 1 5 0;
#X connect 18 1 22 0;
#X connect 20 0 4 5;
#X connect 21 0 20 0;
#X connect 22 0 3 0;
#X connect 24 0 1 0;
#X connect 26 0 42 0;
#X connect 27 0 11 0;
#X connect 28 0 27 0;
#X connect 29 0 30 0;
#X connect 30 0 2 0;
#X connect 36 0 34 0;
#X connect 37 0 32 0;
#X connect 38 0 33 0;
#X connect 39 0 35 0;
#X connect 40 0 26 0;
#X connect 41 0 40 2;
#X connect 42 0 0 0;
