#N canvas 390 188 522 402 12;
#X obj 209 232 *~;
#X obj 94 138 mtof;
#X obj 227 174 envadsr~ 200 50 0.75 250;
#X obj 94 49 inlet, f 6;
#X obj 94 102 unpack float float;
#X obj 209 303 outlet~;
#X obj 94 173 tabosc4~ sawtooth;
#X connect 0 0 5 0;
#X connect 1 0 6 0;
#X connect 2 0 0 1;
#X connect 3 0 4 0;
#X connect 4 0 1 0;
#X connect 4 1 2 0;
#X connect 6 0 0 0;
