#N canvas 390 188 723 457 12;
#X obj 199 232 *~;
#X obj 94 148 mtof;
#X obj 254 222 loadbang;
#X obj 217 174 envadsr~ 200 50 0.75 250;
#X obj 368 309 array define \$0-wave;
#X obj 254 309 s \$0-wave;
#X msg 254 249 sinesum 4096 1 0.5 0.333333 0.25 0.2 0.166667 0.142857 0.125 0.111111 0.1 0.090909 0.0833333 0.076923 0.0714286 0.0666667 0.0625 \, normalize, f 46;
#X obj 94 174 tabosc4~ \$0-wave;
#X obj 94 49 inlet, f 6;
#X obj 94 102 unpack float float;
#X obj 199 363 outlet~;
#X connect 0 0 10 0;
#X connect 1 0 7 0;
#X connect 2 0 6 0;
#X connect 3 0 0 1;
#X connect 6 0 5 0;
#X connect 7 0 0 0;
#X connect 8 0 9 0;
#X connect 9 0 1 0;
#X connect 9 1 3 0;
