#N canvas 593 22 570 424 10;
#X obj 240 70 mtof;
#X obj 243 47 hsl 128 15 0 127 0 1 empty empty empty -2 -6 0 8 -262144
-1 -1 10200 1;
#X obj 30 70 mtof;
#X obj 33 47 hsl 128 15 0 127 0 1 empty empty empty -2 -6 0 8 -262144
-1 -1 6900 1;
#X obj 30 94 phasor~;
#X text 27 22 SAWTOOTH WAVE;
#X obj 240 94 osc~;
#X text 237 22 SINE WAVE;
#N canvas 0 22 450 300 graph1 0;
#X array additive_clip 1000 float 0;
#X coords 0 1 999 -1 200 100 1;
#X restore 260 245 graph;
#X obj 109 243 tgl 15 1 empty empty empty 0 -6 0 10 -262144 -1 -1 1
1;
#X obj 30 327 dac~;
#X text 238 332 -1;
#X text 244 287 0;
#X text 244 241 1;
#X text 130 241 Graph output;
#X text 75 328 Line out to soundcard.;
#X obj 30 152 +~;
#X obj 72 294 tabwrite~ additive_clip;
#X text 87 145 Here's what happens when you add the two signals together
and don't scale them afterwards. Anything outside the range of -1 to
1 (i.e. outside the bounds of the graph below) will clip and cause
distortion when it reaches the soundcard.;
#X text 422 8 osc5.pd;
#X obj 109 266 metro 100;
#X connect 0 0 6 0;
#X connect 1 0 0 0;
#X connect 2 0 4 0;
#X connect 3 0 2 0;
#X connect 4 0 16 0;
#X connect 6 0 16 1;
#X connect 9 0 20 0;
#X connect 16 0 10 0;
#X connect 16 0 10 1;
#X connect 16 0 17 0;
#X connect 20 0 17 0;
