#N canvas 28 47 511 373 10;
#X obj 40 288 dac~;
#X obj 40 251 *~;
#X obj 40 33 osc~ 440;
#X text 118 152 Go to 1 in 1000ms;
#X msg 107 183 0 1000;
#X text 162 184 Go to 0 in 1000ms;
#X msg 55 73 bang;
#X obj 107 114 delay 1000;
#X msg 55 154 1 1000;
#X text 186 114 Wait 1000ms after the input "bang" \,;
#X text 187 129 then output a "bang".;
#X obj 55 220 line~;
#X text 105 221 Use [line~] to generate an audio ramp.;
#X text 106 250 Multiply the audio signal from the [osc~];
#X text 106 265 by the ramp coming from [line~].;
#X text 350 37 amp3.pd;
#X connect 1 0 0 0;
#X connect 1 0 0 1;
#X connect 2 0 1 0;
#X connect 4 0 11 0;
#X connect 6 0 8 0;
#X connect 6 0 7 0;
#X connect 7 0 4 0;
#X connect 8 0 11 0;
#X connect 11 0 1 1;
