#N canvas 40 448 532 345 10;
#X obj 44 298 dac~;
#X obj 44 261 *~;
#X obj 44 23 osc~ 440;
#X obj 59 230 vline~;
#X text 109 231 Use [vline~] to generate an audio ramp.;
#X text 107 37 * Attack = 1000ms (1 1000);
#X text 107 62 * Decay = 1000ms after pause of 1000ms (0.7 1000 1000)
;
#X text 110 260 Multiply the audio signal from the [osc~];
#X text 110 275 by the ramp coming from [vline~].;
#X msg 59 192 1 1000 \, 0.7 1000 1000 \, 0 1000 3000;
#X text 108 124 * Release = 1000ms after pause of 3000ms (0 1000 3000)
(think of 3000 = two previous ramps + sustain added together!);
#X text 107 87 * Sustain = 1000ms after pause of 2000ms (think of 2000
= two previous ramps added together!);
#X text 396 19 amp4.pd;
#X connect 1 0 0 0;
#X connect 1 0 0 1;
#X connect 2 0 1 0;
#X connect 3 0 1 1;
#X connect 9 0 3 0;
