#N canvas 51 43 626 725 10;
#N canvas 0 22 450 300 graph1 0;
#X array bp 1000 float 0;
#X coords 0 1 999 -1 200 100 1;
#X restore 270 451 graph;
#X obj 119 452 tgl 15 1 empty empty empty 0 -6 0 10 -262144 -1 -1 1
1;
#X text 248 538 -1;
#X text 254 493 0;
#X text 254 447 1;
#X text 140 450 Graph output;
#X text 82 534 Line out to soundcard.;
#X obj 119 475 metro 100;
#X obj 42 531 dac~;
#X obj 42 207 noise~;
#X obj 67 280 mtof;
#X obj 70 257 hsl 128 15 0 127 0 1 empty empty empty -2 -6 0 8 -262144
-1 -1 9600 1;
#X text 128 281 [mtof] converts MIDI notes to frequency in Hertz.;
#X text 129 237 Slider sends MIDI note values (0-127).;
#X text 129 207 Generate white noise.;
#N canvas 0 22 450 300 graph2 0;
#X array bp_display 7 float 5;
#A 0 -0.9857 -0.9857 -0.9857 1.61426 -0.985712 -0.985712 -0.985704
;
#X coords 0 1 6 -1 200 100 1;
#X restore 42 69 graph;
#X text 87 171 Frequency in Hz;
#X text 257 110 Volume of sound passed;
#X text 40 172 0;
#X text 207 172 20 \, 0;
#X text 247 156 0;
#X text 250 66 1;
#X text 448 28 filt3.pd;
#X obj 82 503 tabwrite~ bp;
#X text 40 28 Graphical depiction of a Band Pass Filter.;
#X obj 42 388 bp~ 220 1;
#X text 128 384 [bp~] passes the center frequency unchanged \, and
reduces or eliminates frequencies above and below it.;
#X text 129 324 The third inlet controls the Resonance \, i.e. how
far above or below the center frequency the filter still allows sound
to pass. Generally this number is between 0-10.;
#X obj 93 307 nbx 5 14 0 20 0 1 empty empty empty 0 -6 0 10 -262144
-1 -1 6 256;
#X text 36 73 cutoff frequency ^;
#X connect 1 0 7 0;
#X connect 7 0 23 0;
#X connect 9 0 25 0;
#X connect 10 0 25 1;
#X connect 11 0 10 0;
#X connect 25 0 8 0;
#X connect 25 0 8 1;
#X connect 25 0 23 0;
#X connect 28 0 25 2;
