#N canvas 438 28 747 697 10;
#X obj 52 110 f;
#X obj 98 111 + 1;
#X obj 52 77 metro;
#X obj 52 18 tgl 15 1 empty empty empty 0 -6 0 10 -262144 -1 -1 1 1
;
#X obj 79 54 nbx 5 14 -1e+37 1e+37 0 1 empty empty empty 0 -6 0 10
-262144 -1 -1 200 256;
#X obj 52 141 mod 16;
#X text 417 20 ctl4.pd;
#X obj 52 194 select 0 1 2 3 4 5 6 7 8 9 10 11 12 13 14 15;
#X obj 67 270 vsl 15 128 0 127 0 1 empty empty empty 0 -8 0 10 -262144
-1 -1 9000 1;
#X obj 52 415 f;
#X text 142 51 Here is the counter we built in the previous example.
;
#X floatatom 52 442 5 0 0 0 - - -;
#X obj 52 168 hradio 15 1 0 16 empty empty empty 0 -6 0 10 -262144
-1 -1 1;
#X text 137 234 [select] sends a "bang" to the outlet which matches
the number sent to the inlet. "0" sends a "bang" out the first outlet
\, "1" sends a "bang" out the second \, etc etc...;
#X text 141 144 An [Hradio] GUI object shows us which step we are at.
;
#X text 140 111 [float] has been abbreviated wth [f].;
#X text 136 367 [f] stores a Floating Point Number on its right side
("cold") inlet \, and outputs that number when it gets a "bang" on
the left side ("hot") inlet. This means you can change the value of
the [vslider] at any time \, and it will only be output from [f] when
the counter above is at 0;
#X connect 0 0 1 0;
#X connect 0 0 5 0;
#X connect 1 0 0 1;
#X connect 2 0 0 0;
#X connect 3 0 2 0;
#X connect 4 0 2 1;
#X connect 5 0 12 0;
#X connect 7 0 9 0;
#X connect 8 0 9 1;
#X connect 9 0 11 0;
#X connect 12 0 7 0;
