#N canvas 387 63 743 693 10;
#X obj 65 208 cnv 15 470 133 empty empty empty 20 12 0 14 -4034 -66577
0;
#X obj 52 90 f;
#X obj 98 91 + 1;
#X obj 52 57 metro;
#X obj 52 18 tgl 15 1 empty empty empty 0 -6 0 10 -262144 -1 -1 1 1
;
#X obj 79 34 nbx 5 14 -1e+37 1e+37 0 1 empty empty empty 0 -6 0 10
-262144 -1 -1 200 256;
#X obj 52 121 mod 16;
#X obj 52 148 hradio 15 1 0 16 empty empty empty 0 -6 0 10 -262144
-1 -1 11;
#X obj 52 174 select 0 1 2 3 4 5 6 7 8 9 10 11 12 13 14 15;
#X obj 67 210 vsl 15 128 0 127 0 1 empty empty empty 0 -8 0 10 -262144
-1 -1 5800 1;
#X obj 52 355 f;
#X obj 97 210 vsl 15 128 0 127 0 1 empty empty empty 0 -8 0 10 -262144
-1 -1 8500 1;
#X obj 82 355 f;
#X obj 127 210 vsl 15 128 0 127 0 1 empty empty empty 0 -8 0 10 -262144
-1 -1 9500 1;
#X obj 112 355 f;
#X obj 157 210 vsl 15 128 0 127 0 1 empty empty empty 0 -8 0 10 -262144
-1 -1 1300 1;
#X obj 142 355 f;
#X obj 187 210 vsl 15 128 0 127 0 1 empty empty empty 0 -8 0 10 -262144
-1 -1 10300 1;
#X obj 172 355 f;
#X obj 217 210 vsl 15 128 0 127 0 1 empty empty empty 0 -8 0 10 -262144
-1 -1 6800 1;
#X obj 202 355 f;
#X obj 247 210 vsl 15 128 0 127 0 1 empty empty empty 0 -8 0 10 -262144
-1 -1 11300 1;
#X obj 232 355 f;
#X obj 277 210 vsl 15 128 0 127 0 1 empty empty empty 0 -8 0 10 -262144
-1 -1 1800 1;
#X obj 262 355 f;
#X obj 307 210 vsl 15 128 0 127 0 1 empty empty empty 0 -8 0 10 -262144
-1 -1 10600 1;
#X obj 292 355 f;
#X obj 337 210 vsl 15 128 0 127 0 1 empty empty empty 0 -8 0 10 -262144
-1 -1 5900 1;
#X obj 322 355 f;
#X obj 367 210 vsl 15 128 0 127 0 1 empty empty empty 0 -8 0 10 -262144
-1 -1 3300 1;
#X obj 352 355 f;
#X obj 397 210 vsl 15 128 0 127 0 1 empty empty empty 0 -8 0 10 -262144
-1 -1 1000 1;
#X obj 382 355 f;
#X obj 427 210 vsl 15 128 0 127 0 1 empty empty empty 0 -8 0 10 -262144
-1 -1 6700 1;
#X obj 412 355 f;
#X obj 457 210 vsl 15 128 0 127 0 1 empty empty empty 0 -8 0 10 -262144
-1 -1 6500 1;
#X obj 442 355 f;
#X obj 487 210 vsl 15 128 0 127 0 1 empty empty empty 0 -8 0 10 -262144
-1 -1 7600 1;
#X obj 472 355 f;
#X obj 517 210 vsl 15 128 0 127 0 1 empty empty empty 0 -8 0 10 -262144
-1 -1 900 1;
#X obj 502 355 f;
#X obj 52 477 phasor~;
#X obj 52 404 mtof;
#X obj 52 604 dac~;
#X obj 52 533 bp~ 220 5;
#X obj 77 506 * 1.5;
#X text 202 31 Here is the counter we built in the previous examples.
;
#X text 177 477 [phasor~] gets a frequency from [mtof].;
#X text 178 401 Above \, we have added an [vslider] and an [f] for
each step of our 16 step sequencer. The value of each step is only
sent out when the counter reaches that step \, so you can change the
values of the [vslider]s in between the steps.;
#X text 177 505 Multiply the frequency from [mtof] by 1.5 and send
it to the filter [bp~]. [bp~] filters the sound so that the center
frequency is a half-octave above that of the [phasor~]. The Resonance
is high \, so the harsh sound of the [phasor~] is softened.;
#X text 477 11 ctl5.pd;
#X text 178 588 You could also add an Envelope Generator here if you
don't want the sharp clicks in between the notes.;
#X connect 1 0 2 0;
#X connect 1 0 6 0;
#X connect 2 0 1 1;
#X connect 3 0 1 0;
#X connect 4 0 3 0;
#X connect 5 0 3 1;
#X connect 6 0 7 0;
#X connect 7 0 8 0;
#X connect 8 0 10 0;
#X connect 8 1 12 0;
#X connect 8 2 14 0;
#X connect 8 3 16 0;
#X connect 8 4 18 0;
#X connect 8 5 20 0;
#X connect 8 6 22 0;
#X connect 8 7 24 0;
#X connect 8 8 26 0;
#X connect 8 9 28 0;
#X connect 8 10 30 0;
#X connect 8 11 32 0;
#X connect 8 12 34 0;
#X connect 8 13 36 0;
#X connect 8 14 38 0;
#X connect 8 15 40 0;
#X connect 9 0 10 1;
#X connect 10 0 42 0;
#X connect 11 0 12 1;
#X connect 12 0 42 0;
#X connect 13 0 14 1;
#X connect 14 0 42 0;
#X connect 15 0 16 1;
#X connect 16 0 42 0;
#X connect 17 0 18 1;
#X connect 18 0 42 0;
#X connect 19 0 20 1;
#X connect 20 0 42 0;
#X connect 21 0 22 1;
#X connect 22 0 42 0;
#X connect 23 0 24 1;
#X connect 24 0 42 0;
#X connect 25 0 26 1;
#X connect 26 0 42 0;
#X connect 27 0 28 1;
#X connect 28 0 42 0;
#X connect 29 0 30 1;
#X connect 30 0 42 0;
#X connect 31 0 32 1;
#X connect 32 0 42 0;
#X connect 33 0 34 1;
#X connect 34 0 42 0;
#X connect 35 0 36 1;
#X connect 36 0 42 0;
#X connect 37 0 38 1;
#X connect 38 0 42 0;
#X connect 39 0 40 1;
#X connect 40 0 42 0;
#X connect 41 0 44 0;
#X connect 42 0 41 0;
#X connect 42 0 45 0;
#X connect 44 0 43 0;
#X connect 44 0 43 1;
#X connect 45 0 44 1;
