#N canvas 555 176 768 629 12;
#X obj 91 18 phasor~ 1000;
#X obj 92 161 tabwrite~ waveform_offset;
#X obj 218 89 tgl 15 0 empty empty empty 17 7 0 10 #fcfcfc #000000
#000000 1 1;
#X obj 218 118 metro 100;
#X obj 356 162 tabwrite~ waveform_corrected;
#X obj 371 90 *~ 2;
#X obj 372 122 -~ 1;
#N canvas 0 23 1440 855 (subpatch) 0;
#X array waveform_offset 1000 float 0 black black;
#X coords 0 1 999 -1 200 100 1;
#X restore 93 259 graph;
#X text 71 344 -1;
#X text 77 299 0;
#X text 77 253 1;
#N canvas 0 23 1440 855 (subpatch) 0;
#X array waveform_corrected 1000 float 0 black black;
#X coords 0 1 999 -1 200 100 1;
#X restore 364 256 graph;
#X text 342 341 -1;
#X text 348 296 0;
#X text 348 250 1;
#X connect 0 0 1 0;
#X connect 0 0 5 0;
#X connect 2 0 3 0;
#X connect 3 0 1 0;
#X connect 3 0 4 0;
#X connect 5 0 6 0;
#X connect 6 0 4 0;
