#N canvas 712 129 699 466 12;
#X obj 312 197 tgl 15 0 empty empty empty 17 7 0 10 #fcfcfc #000000
#000000 1 1;
#X obj 312 226 metro 100;
#N canvas 0 23 1440 855 (subpatch) 0;
#X array waveform_uncorrected 1000 float 0 black black;
#X coords 0 1 999 -1 200 100 1;
#X restore 95 336 graph;
#X text 73 421 -1;
#X text 79 376 0;
#X text 79 330 1;
#X obj 97 271 dac~;
#X obj 94 64 +~;
#X obj 211 32 phasor~ 440;
#X obj 93 32 phasor~ 60;
#N canvas 0 23 1440 855 (subpatch) 0;
#X array waveform_corrected 1000 float 0 black black;
#X coords 0 1 999 -1 200 100 1;
#X restore 327 335 graph;
#X text 305 420 -1;
#X text 311 375 0;
#X text 311 329 1;
#X obj 98 207 hip~ 1;
#X obj 310 73 tgl 15 0 empty empty empty 17 7 0 10 #fcfcfc #000000
#000000 1 1;
#X obj 310 102 metro 100;
#X obj 184 145 tabwrite~ waveform_uncorrected;
#X obj 186 269 tabwrite~ waveform_corrected;
#X connect 0 0 1 0;
#X connect 1 0 18 0;
#X connect 7 0 17 0;
#X connect 7 0 14 0;
#X connect 8 0 7 1;
#X connect 9 0 7 0;
#X connect 14 0 6 0;
#X connect 14 0 18 0;
#X connect 14 0 6 1;
#X connect 15 0 16 0;
#X connect 16 0 17 0;
