#N canvas 510 30 814 634 12;
#X obj 220 105 tgl 15 0 empty empty empty 17 7 0 10 #fcfcfc #000000
#000000 1 1;
#X obj 220 134 metro 100;
#N canvas 0 23 1440 855 (subpatch) 0;
#X array waveform_uncorrected 1000 float 0 black black;
#X coords 0 1 999 -1 200 100 1;
#X restore 96 447 graph;
#X text 74 532 -1;
#X text 80 487 0;
#X text 80 441 1;
#X obj 91 18 phasor~ 100;
#X obj 91 109 min~;
#X obj 92 161 -~ 0.25;
#X obj 92 197 *~ 4;
#X obj 220 174 tabwrite~ waveform_uncorrected;
#X obj 131 48 *~ -1;
#X obj 133 75 +~ 1;
#X obj 221 295 tgl 15 0 empty empty empty 17 7 0 10 #fcfcfc #000000
#000000 1 1;
#X obj 221 324 metro 100;
#X obj 96 378 dac~;
#X obj 221 364 tabwrite~ waveform_corrected;
#N canvas 0 23 1440 855 (subpatch) 0;
#X array waveform_corrected 1000 float 0 black black;
#X coords 0 1 999 -1 200 100 1;
#X restore 333 445 graph;
#X text 311 530 -1;
#X text 317 485 0;
#X text 317 439 1;
#X connect 0 0 1 0;
#X connect 1 0 10 0;
#X connect 6 0 7 0;
#X connect 6 0 11 0;
#X connect 7 0 8 0;
#X connect 7 0 10 0;
#X connect 8 0 9 0;
#X connect 9 0 15 0;
#X connect 9 0 15 1;
#X connect 9 0 16 0;
#X connect 11 0 12 0;
#X connect 12 0 7 1;
#X connect 13 0 14 0;
#X connect 14 0 16 0;
