#N canvas 502 23 768 629 12;
#X obj 91 18 phasor~ 1000;
#X obj 218 89 tgl 15 0 empty empty empty 17 7 0 10 #fcfcfc #000000
#000000 1 1;
#X obj 218 118 metro 100;
#N canvas 0 23 1440 855 (subpatch) 0;
#X array waveform 1000 float 0 black black;
#X coords 0 1 999 -1 200 100 1;
#X restore 93 259 graph;
#X text 71 344 -1;
#X text 77 299 0;
#X text 77 253 1;
#X obj 92 55 expr~ ($v1 > 0.5) * 2 - 1;
#X obj 92 161 tabwrite~ waveform;
#X connect 0 0 7 0;
#X connect 1 0 2 0;
#X connect 2 0 8 0;
#X connect 7 0 8 0;
