#N canvas 738 23 699 528 12;
#X obj 345 195 tgl 15 0 empty empty empty 17 7 0 10 #fcfcfc #000000
#000000 1 1;
#X obj 345 224 metro 100;
#N canvas 0 23 1440 855 (subpatch) 0;
#X array waveform_unlimited 1000 float 0 black black;
#X coords 0 1 999 -1 200 100 1;
#X restore 95 336 graph;
#X text 73 421 -1;
#X text 79 376 0;
#X text 79 330 1;
#X obj 97 271 dac~;
#N canvas 0 23 1440 855 (subpatch) 0;
#X array waveform_limited 1000 float 0 black black;
#X coords 0 1 999 -1 200 100 1;
#X restore 327 335 graph;
#X text 305 420 -1;
#X text 311 375 0;
#X text 311 329 1;
#X obj 345 98 tgl 15 0 empty empty empty 17 7 0 10 #fcfcfc #000000
#000000 1 1;
#X obj 345 127 metro 100;
#X obj 93 32 noise~;
#X obj 94 64 *~ 2;
#X obj 95 195 *~;
#X obj 94 149 z~ 64;
#X obj 164 149 limiter~;
#X obj 345 170 tabwrite~ waveform_unlimited;
#X obj 345 267 tabwrite~ waveform_limited;
#X connect 0 0 1 0;
#X connect 1 0 19 0;
#X connect 11 0 12 0;
#X connect 12 0 18 0;
#X connect 13 0 14 0;
#X connect 14 0 16 0;
#X connect 14 0 17 0;
#X connect 14 0 18 0;
#X connect 15 0 6 0;
#X connect 15 0 6 1;
#X connect 15 0 19 0;
#X connect 16 0 15 0;
#X connect 17 0 15 1;
